<?xml version="1.0" encoding="UTF-8"?>
<svg version="1.1" xmlns="http://www.w3.org/2000/svg" width="512" height="512">
<path d="M0 0 C4.54938468 2.09490566 7.47642277 5.4755572 10.625 9.25 C11.40278809 10.17220337 11.40278809 10.17220337 12.19628906 11.11303711 C33.04387155 36.12823741 49.29477638 63.63006884 46.75 97.30859375 C44.14755919 113.69002923 34.44431622 125.08320861 22.875 136.375 C22.00746094 137.23738281 21.13992188 138.09976563 20.24609375 138.98828125 C16.79114232 142.40116326 13.36167444 145.78502878 9.5859375 148.84375 C7.22593842 150.81160421 5.52562733 152.6371705 3.75 155.125 C3.27046875 155.78757813 2.7909375 156.45015625 2.296875 157.1328125 C0.10392969 160.29012532 -1.24262757 162.26113748 -1.50244141 166.09399414 C-1.5623526 166.91658218 -1.62226379 167.73917023 -1.68399048 168.58668518 C-1.73928925 169.47718063 -1.79458801 170.36767609 -1.8515625 171.28515625 C-1.91532074 172.21484726 -1.97907898 173.14453827 -2.04476929 174.10240173 C-2.17834328 176.08010831 -2.30750224 178.05811722 -2.43261719 180.03637695 C-2.62100924 182.99972664 -2.82489433 185.96168171 -3.03125 188.92382812 C-3.81928455 200.6334023 -4.18116764 212.26527784 -4 224 C-3.49927979 222.89503174 -2.99855957 221.79006348 -2.48266602 220.65161133 C3.17120359 208.292273 9.72240099 199.30013158 21.3125 191.875 C28.17934481 187.00803525 29.47884696 181.26062389 31.6484375 173.51953125 C36.78639876 155.31460889 51.37256016 139.11559626 67.53125 129.828125 C82.06295088 122.16952589 97.30319313 117.69048792 113 113 C122.7412306 110.08091652 131.52480898 107.41514008 139.8359375 101.3203125 C142 100 142 100 146 100 C147.10068611 103.35883004 146.88712391 105.74286369 146.21484375 109.19140625 C146.01713379 110.20920166 145.81942383 111.22699707 145.61572266 112.27563477 C145.28000244 113.90263306 145.28000244 113.90263306 144.9375 115.5625 C144.70853027 116.68132568 144.47956055 117.80015137 144.24365234 118.95288086 C138.45314592 146.3181973 128.29679696 176.36837056 104.21337891 192.88989258 C87.64144563 203.57323697 68.8294944 203.55220125 50.15722656 199.7175293 C44.60296484 198.49789434 39.37715514 196.91408423 34.19140625 194.5390625 C31.13420682 193.78702414 29.7568808 194.54474249 27 196 C10.40794157 207.43826532 1.88789513 223.84704685 -2.171875 243.2421875 C-3.18548172 249.13802508 -2.98038234 254.62657834 -2.4375 260.5625 C-2.2991272 262.20690063 -2.2991272 262.20690063 -2.15795898 263.88452148 C-0.25605965 284.68429241 3.09474853 305.48949229 7 326 C7.52207031 325.07960938 8.04414063 324.15921875 8.58203125 323.2109375 C17.13709525 308.39491589 27.27021259 294.46079041 41 284 C41.66 284 42.32 284 43 284 C43.16798096 283.38761475 43.33596191 282.77522949 43.5090332 282.14428711 C45.2591943 276.01374288 47.43507938 270.30918822 50.1875 264.5625 C50.58259766 263.7362915 50.97769531 262.91008301 51.38476562 262.05883789 C54.61121972 255.48138858 58.29552986 249.63442354 63 244 C63.68578125 243.14148438 64.3715625 242.28296875 65.078125 241.3984375 C74.26514407 230.45993637 85.92670816 223.51290202 100 221 C132.22505717 218.555387 159.15135464 232.05520552 185 250 C185.99 250.66 186.98 251.32 188 252 C188.1875 254.625 188.1875 254.625 188 257 C184.80467028 257.94407469 181.6606195 258.86846947 178.390625 259.51953125 C163.66766587 262.60339431 152.24606707 271.03960255 140.3671875 279.80859375 C131.1597903 286.5879991 121.73152351 292.89108334 111 297 C110.22398437 297.31839844 109.44796875 297.63679688 108.6484375 297.96484375 C92.08569083 303.66978982 70.85633098 300.79914094 55.28125 293.2734375 C52.11461038 291.77150329 49.46433916 290.5402663 46 290 C41.73298339 291.76608792 39.07102974 294.61980619 36 298 C35.25234375 298.7425 34.5046875 299.485 33.734375 300.25 C27.12598762 307.08944988 21.94360074 314.91646126 17 323 C16.43708252 323.90637207 16.43708252 323.90637207 15.86279297 324.83105469 C10.52613134 333.61265983 9.40321006 339.8796324 11 350 C12.69759056 362.71397163 13.38768549 375.30754441 13.625 388.125 C13.66333332 389.87371405 13.70239285 391.62241234 13.7421875 393.37109375 C13.83644718 397.58059567 13.92105392 401.79018421 14 406 C14.64283936 405.46963135 15.28567871 404.9392627 15.94799805 404.39282227 C26.43809698 395.84919888 37.0844714 390.39137659 49.875 386.0625 C50.74229736 385.76786865 51.60959473 385.4732373 52.50317383 385.16967773 C58.02634033 383.39027848 63.21484804 382.46164344 69 382 C69.21914063 380.97261719 69.43828125 379.94523437 69.6640625 378.88671875 C73.41273694 362.15438584 80.72045171 349.16567808 95.41015625 339.5234375 C114.2914561 328.41679053 135.96591923 326.30328138 157.27490234 323.49975586 C175.93700082 321.18020315 175.93700082 321.18020315 193.734375 315.37109375 C197 314 197 314 199.375 314.125 C201 315 201 315 202 318 C201.68969727 319.89086914 201.68969727 319.89086914 201.06640625 322.03515625 C200.71739258 323.23603882 200.71739258 323.23603882 200.36132812 324.46118164 C200.09771484 325.3196167 199.83410156 326.17805176 199.5625 327.0625 C199.29244141 327.94993896 199.02238281 328.83737793 198.74414062 329.75170898 C195.88287119 338.84011475 192.17403542 347.44540136 188 356 C187.2265625 357.59134766 187.2265625 357.59134766 186.4375 359.21484375 C183.04073423 365.79607743 178.88104229 371.44228826 174 377 C173.00033203 378.16015625 173.00033203 378.16015625 171.98046875 379.34375 C160.68854321 391.57841515 144.57933282 398.31784498 128 399 C127.18660156 399.03996094 126.37320312 399.07992188 125.53515625 399.12109375 C114.19833805 399.40409802 103.28854214 397.49367774 92.375 394.625 C91.15176025 394.30692383 91.15176025 394.30692383 89.90380859 393.98242188 C86.3531998 393.02794944 83.0320994 392.01362358 79.640625 390.57421875 C68.86350522 386.06513884 59.41693071 390.14172989 49 394 C47.86232178 394.41765625 47.86232178 394.41765625 46.70166016 394.84375 C36.9812766 398.51564972 27.96971268 403.26932038 20 410 C19.39438232 410.47107178 18.78876465 410.94214355 18.16479492 411.42749023 C11.61261811 417.43898241 11.45280475 425.27104131 10.67736816 433.61953735 C10.27005658 437.98010325 9.76342019 442.32913449 9.26171875 446.6796875 C9.11387436 447.9872274 9.11387436 447.9872274 8.96304321 449.32118225 C7.99830956 457.58476961 6.49144053 465.68109206 4.75 473.8125 C4.4914624 475.02639404 4.2329248 476.24028809 3.96655273 477.4909668 C2.18130397 485.63739207 2.18130397 485.63739207 1 488 C-0.65 487.67 -2.3 487.34 -4 487 C-4.31251445 480.74102996 -3.09458914 475.15647784 -1.75 469.0625 C0.42445597 458.71309147 2.04400663 448.35920412 3.375 437.875 C3.46608032 437.18318634 3.55716064 436.49137268 3.65100098 435.77859497 C3.91086743 433.78866318 4.15490917 431.79668475 4.3984375 429.8046875 C4.53942871 428.65983887 4.68041992 427.51499023 4.82568359 426.33544922 C5.09692554 421.1453828 4.97029876 417.29142967 1.8046875 413.078125 C0.84649414 412.11675161 -0.13139366 411.17472686 -1.125 410.25 C-1.65053467 409.74339844 -2.17606934 409.23679687 -2.7175293 408.71484375 C-16.00802068 395.86893299 -16.00802068 395.86893299 -32.265625 388.8359375 C-41.625232 391.3785079 -49.37923588 396.53266493 -57.3125 401.9375 C-66.999969 408.51012636 -77.09169678 414.87270796 -89 416 C-89.67675781 416.08121094 -90.35351562 416.16242188 -91.05078125 416.24609375 C-104.62837761 417.08989917 -118.89161705 410.38667737 -131.25 405.4375 C-152.15086301 397.09805566 -170.34198176 393.67610069 -193 396 C-193.87890625 393.8828125 -193.87890625 393.8828125 -194 391 C-192.03810108 388.66307774 -190.22620278 386.84521784 -187.9375 384.875 C-186.98544678 384.02566895 -186.98544678 384.02566895 -186.01416016 383.15917969 C-180.09279602 377.93762642 -173.93731359 373.02337643 -167.64648438 368.25683594 C-166.08843046 367.06750296 -164.55130189 365.85090176 -163.015625 364.6328125 C-148.10115693 352.98340366 -131.34636081 344.62056495 -113 340 C-112.24203125 339.80535156 -111.4840625 339.61070312 -110.703125 339.41015625 C-90.02015271 336.27184398 -70.82787162 341.07771044 -53.9296875 353.203125 C-51.19314011 355.38321568 -48.58102973 357.63845942 -46 360 C-44.84951172 361.04607422 -44.84951172 361.04607422 -43.67578125 362.11328125 C-39.86845156 365.74785252 -36.62239501 369.45749452 -33.57666016 373.75585938 C-28.05945442 381.47680881 -21.79750426 385.87282963 -13.80126953 390.83251953 C-6.4163475 395.619006 -0.138028 401.7525223 6 408 C7.70080169 358.40979208 7.70080169 358.40979208 -16.12109375 316.8828125 C-24.41513004 308.43335134 -33.71421185 301.80509584 -44 296 C-45.62228516 295.07767578 -45.62228516 295.07767578 -47.27734375 294.13671875 C-54.26813781 290.22830389 -54.26813781 290.22830389 -62 291 C-65.33550431 292.58583931 -65.33550431 292.58583931 -68.6875 294.625 C-69.2969043 294.98182861 -69.90630859 295.33865723 -70.53417969 295.70629883 C-74.3303343 297.9461888 -78.04954047 300.29246574 -81.75 302.6875 C-97.99039153 313.0351515 -114.03810455 316.2109827 -132.98828125 312.20703125 C-152.46442539 307.64439561 -167.69906749 295.50268356 -178.50073242 278.78808594 C-187.97731899 263.51169583 -192.7655254 245.97591513 -190 228 C-184.42893659 228.44568507 -181.56025415 229.89902718 -177 233 C-162.68357249 239.41469257 -146.09928658 238.3548106 -130.7890625 238.45629883 C-108.90184101 238.62871375 -90.06605435 240.93866381 -73.375 256.4375 C-72.59125 257.283125 -71.8075 258.12875 -71 259 C-70.48050781 259.5259375 -69.96101563 260.051875 -69.42578125 260.59375 C-64.68929045 265.61762338 -56 275.74088945 -56 283 C-54.80375 283.33 -53.6075 283.66 -52.375 284 C-33.42888617 290.36494248 -17.68529996 304.98799527 -4 319 C-3.00068984 320.00068936 -2.00078061 321.00078122 -1 322 C-1.16081055 321.07292236 -1.32162109 320.14584473 -1.48730469 319.19067383 C-2.11319441 315.56189255 -2.72576967 311.93096753 -3.33331299 308.29907227 C-3.61118886 306.64085298 -3.89109775 304.9829731 -4.17303467 303.32543945 C-5.78090391 293.82056224 -7.15453186 284.37878295 -7.8671875 274.76171875 C-7.9336145 273.93750931 -8.0000415 273.11329987 -8.06848145 272.26411438 C-8.38574565 268.31744446 -8.65260707 264.38058981 -8.82714844 260.42504883 C-9.60981665 248.4860185 -14.36762573 242.92769066 -23 235 C-24.15089678 233.68895485 -25.28492101 232.36203178 -26.375 231 C-31.72239551 224.82690372 -37.91695826 219.43039323 -44 214 C-44.88945312 213.19949219 -45.77890625 212.39898437 -46.6953125 211.57421875 C-47.45585937 210.93097656 -48.21640625 210.28773438 -49 209.625 C-49.639375 209.08101562 -50.27875 208.53703125 -50.9375 207.9765625 C-53.99901862 206.52697982 -55.76788227 207.09866004 -59 208 C-61.36906497 209.12292559 -63.60253377 210.27358414 -65.875 211.5625 C-67.19304349 212.28691832 -68.51209063 213.00951293 -69.83203125 213.73046875 C-70.51217285 214.10349121 -71.19231445 214.47651367 -71.89306641 214.86083984 C-75.41601568 216.76560013 -78.98430302 218.57671165 -82.5625 220.375 C-83.21653809 220.70830322 -83.87057617 221.04160645 -84.54443359 221.38500977 C-97.67044182 227.96490707 -111.0870462 228.41500056 -125 224 C-139.61486849 218.54254911 -150.13853928 207.0297278 -160.8515625 196.16015625 C-164.40600689 192.56687121 -168.11164449 189.22748876 -172 186 C-172.83789062 185.27296875 -173.67578125 184.5459375 -174.5390625 183.796875 C-180.64330274 178.60397204 -186.81328828 174.54470307 -194 171 C-193.4011842 167.3533653 -193.10133687 167.07498929 -189.875 164.6875 C-163.36625664 149.38493945 -130.81350241 142.10600708 -100.703125 149.84765625 C-86.79950797 154.20576971 -74.64903838 162.32278665 -67 175 C-65.9597129 177.01240266 -64.95113215 179.03948409 -63.93994141 181.06665039 C-57.93941444 193.01962734 -50.26739541 200.62616958 -39.67578125 208.8359375 C-29.6511452 216.94345337 -20.19733002 226.05796798 -12 236 C-11.98018066 235.12714355 -11.96036133 234.25428711 -11.93994141 233.35498047 C-11.53444184 216.20526139 -10.9670539 199.10725346 -9.66064453 181.99951172 C-9.41191627 178.66730526 -9.19307789 175.3358731 -9 172 C-8.93296875 170.8864917 -8.8659375 169.7729834 -8.796875 168.62573242 C-8.75949219 167.55943604 -8.72210938 166.49313965 -8.68359375 165.39453125 C-8.64419678 164.44940674 -8.6047998 163.50428223 -8.56420898 162.53051758 C-9.14151282 159.17827429 -10.4973343 158.13394876 -13.125 156.0625 C-14.732062 155.01365424 -16.35611213 153.99013048 -18 153 C-31.42254685 142.93308986 -40.14655025 128.26481914 -43.375 111.9375 C-47.29866102 82.13888526 -29.02685726 54.35558624 -14.1875 30.0625 C-8.91944916 21.38778386 -4.96488654 13.03196255 -2.67578125 3.1171875 C-2.45277344 2.41851562 -2.22976562 1.71984375 -2 1 C-1.34 0.67 -0.68 0.34 0 0 Z M14 25 C14.60152122 28.72834774 15.66820696 31.69457566 17.36328125 35.0625 C17.83644775 36.01793701 18.30961426 36.97337402 18.79711914 37.95776367 C19.54723267 39.46367065 19.54723267 39.46367065 20.3125 41 C24.31397834 49.21241457 27.969543 57.05602379 30 66 C30.22042969 66.90492187 30.44085938 67.80984375 30.66796875 68.7421875 C33.52518102 82.58720268 33.66389809 97.92121955 28 111 C27.62230469 111.88171875 27.24460937 112.7634375 26.85546875 113.671875 C22.4067237 122.75752954 15.50415881 130.33469411 9 138 C9.33 138.66 9.66 139.32 10 140 C13.20472075 136.9132166 16.38527463 133.80255744 19.5625 130.6875 C20.90538086 129.39489258 20.90538086 129.39489258 22.27539062 128.07617188 C32.85702689 117.6495779 40.27898213 107.00194671 40.46875 91.84423828 C40.4584375 90.88501465 40.448125 89.92579102 40.4375 88.9375 C40.42847656 87.92671387 40.41945313 86.91592773 40.41015625 85.87451172 C39.9470331 65.62895472 31.68672743 48.23156588 20 32 C19.47921875 31.24460937 18.9584375 30.48921875 18.421875 29.7109375 C17.31613149 28.11587072 16.16451124 26.55268165 15 25 C14.67 25 14.34 25 14 25 Z M-4 38 C-3 40 -3 40 -3 40 Z M7 38 C6.9906543 38.80888672 6.98130859 39.61777344 6.97167969 40.45117188 C6.66450123 62.14640327 5.29165148 83.65190757 3.37207031 105.26367188 C3.28266678 106.2717691 3.19326324 107.27986633 3.10115051 108.31851196 C2.93158632 110.21571006 2.75944735 112.11268046 2.58427429 114.0093689 C2.22105527 118.01983792 1.88801992 121.96767545 2 126 C4.17150808 123.82849192 4.56875792 122.70024957 5.4375 119.81640625 C5.69184814 118.97698486 5.94619629 118.13756348 6.20825195 117.27270508 C6.46952881 116.3783374 6.73080566 115.48396973 7 114.5625 C7.2683667 113.64815186 7.5367334 112.73380371 7.81323242 111.79174805 C14.93504701 87.11669061 13.35168613 62.90317946 8 38 C7.67 38 7.34 38 7 38 Z M-12 39 C-11 41 -11 41 -11 41 Z M-13 41 C-13.78285245 42.17092168 -14.51326231 43.37691978 -15.22265625 44.59375 C-15.67495605 45.3686377 -16.12725586 46.14352539 -16.59326172 46.94189453 C-35.1512409 79.06998747 -35.1512409 79.06998747 -36.3359375 115.4453125 C-33.54824341 124.72954584 -28.93879365 134.22633189 -21 140 C-21.70694218 136.05290614 -22.78618523 132.3199465 -24 128.5 C-32.74917614 100.96582803 -24.19008501 74.12965221 -13.86035156 48.4375 C-12.98984725 45.9712358 -12.44920417 43.5734459 -12 41 C-12.33 41 -12.66 41 -13 41 Z M-5 41 C-23.32468269 85.92521168 -23.32468269 85.92521168 -16.84375 132.9140625 C-15.95325485 134.96856203 -14.9872654 136.99020972 -14 139 C-12.96901929 135.90705786 -13.21543149 134.43513659 -13.72021484 131.31591797 C-15.98714167 112.5514608 -13.85472696 93.36140504 -10 75 C-9.60433372 73.08322773 -9.20866801 71.16645535 -8.8130188 69.24967957 C-7.86778158 64.6726371 -6.91978148 60.09696737 -5.93115234 55.52905273 C-5.55531006 53.77637085 -5.55531006 53.77637085 -5.171875 51.98828125 C-4.9459668 50.95227783 -4.72005859 49.91627441 -4.48730469 48.84887695 C-4.02820368 46.16488415 -3.9064317 43.71566389 -4 41 C-4.33 41 -4.66 41 -5 41 Z M15 44 C16 46 16 46 16 46 Z M16 46 C16.06058594 46.78761719 16.12117187 47.57523438 16.18359375 48.38671875 C16.36056988 50.6874084 16.53625146 52.98819784 16.7109375 55.2890625 C16.89396927 57.63879464 17.08560137 59.98788611 17.2890625 62.3359375 C19.0431899 83.03464088 16.7145299 101.1200496 10.61279297 120.90869141 C9.9265155 123.25078417 9.40203722 125.59274008 9 128 C18.98433613 118.92333079 26.39524877 106.19936217 27.203125 92.57421875 C27.39432351 76.72067568 24.49542467 62.51067015 18 48 C17.34 47.34 16.68 46.68 16 46 Z M0 53 C-1.12478044 58.54937547 -2.24566024 64.09951969 -3.36303711 69.65039062 C-3.74316786 71.53602011 -4.12433699 73.42144058 -4.5065918 75.30664062 C-5.05795428 78.0267914 -5.60549592 80.74768848 -6.15234375 83.46875 C-6.3221727 84.30241089 -6.49200165 85.13607178 -6.66697693 85.99499512 C-8.52687612 95.29185856 -9.18203728 104.26671721 -9.1875 113.75 C-9.19974609 114.8534375 -9.21199219 115.956875 -9.22460938 117.09375 C-9.23756601 124.45311622 -8.97931815 131.86673801 -7 139 C-6.34 139.33 -5.68 139.66 -5 140 C-4.30342262 132.58448994 -3.61001935 125.16868773 -2.91870117 117.75268555 C-2.68373485 115.23601752 -2.44807305 112.71941432 -2.21166992 110.20288086 C0.28635441 85.67932659 0.28635441 85.67932659 1.0625 61.0625 C1.05798828 60.27166016 1.05347656 59.48082031 1.04882812 58.66601562 C1.03738141 56.77730831 1.01947053 54.88864164 1 53 C0.67 53 0.34 53 0 53 Z M113.42578125 119.44140625 C112.29027832 119.77462891 111.15477539 120.10785156 109.98486328 120.45117188 C108.7729834 120.81791016 107.56110352 121.18464844 106.3125 121.5625 C105.08257324 121.93310547 103.85264648 122.30371094 102.58544922 122.68554688 C84.12158367 128.33073666 67.88404706 135.11595294 54 149 C53.04673828 149.95326172 53.04673828 149.95326172 52.07421875 150.92578125 C47.10719179 156.24523584 43.08313359 162.40777357 40 169 C40.33 169.66 40.66 170.32 41 171 C41.76441406 170.24976563 42.52882813 169.49953125 43.31640625 168.7265625 C57.04215906 155.50111446 72.28794279 147.10272886 89.18017578 138.45507812 C100.33604083 132.69845859 111.11762659 126.79270855 121 119 C118.09089797 117.54544899 116.51534074 118.53068423 113.42578125 119.44140625 Z M113 131 C110.89329674 132.02810803 110.89329674 132.02810803 108.57421875 133.57421875 C103.12783368 136.96245077 97.52273421 139.89831816 91.8125 142.8125 C78.74032359 149.57364494 66.20609866 156.34975686 55 166 C54.23558594 166.63164062 53.47117187 167.26328125 52.68359375 167.9140625 C49.29902514 170.75976419 46.7891969 172.88484712 45 177 C71.43901118 168.68990346 94.86392654 150.47626697 115 132 C114.01 131.505 114.01 131.505 113 131 Z M128 133 C129 135 129 135 129 135 Z M127 135 C128 137 128 137 128 137 Z M126 137 C124.89205078 138.54107422 124.89205078 138.54107422 123.76171875 140.11328125 C105.87729417 164.6816936 84.75359313 178.21417988 56 187 C56 187.33 56 187.66 56 188 C74.55009201 188.49248032 92.43317705 180.52101613 105.96484375 168.05078125 C114.32969278 159.88923523 122.1938434 149.6883184 127 139 C126.505 138.01 126.505 138.01 126 137 Z M114 141 C113.27039063 141.65484375 112.54078125 142.3096875 111.7890625 142.984375 C93.6584621 158.95339802 72.63597911 170.49507124 51 181 C55.16842585 182.79414205 58.75264335 181.03786507 62.75 179.5625 C63.49862305 179.28954102 64.24724609 179.01658203 65.01855469 178.73535156 C84.50028346 171.4286805 102.72403283 160.25054211 115 143 C114.505 142.01 114.505 142.01 114 141 Z M126 152 C125.53851563 152.66644531 125.07703125 153.33289063 124.6015625 154.01953125 C109.53941842 175.30299571 91.55474781 187.85131136 66 193 C62.98268377 193.46510444 60.04705156 193.78235346 57 194 C57 194.33 57 194.66 57 195 C74.96035104 197.76313093 90.21544703 194.92506528 105.27734375 184.41015625 C114.78146062 176.71276259 122.21354303 165.21302855 127 154 C126.505 153.01 126.505 153.01 126 152 Z M-162 159 C-162 159.33 -162 159.66 -162 160 C-156.72640529 159.51827741 -151.48090202 158.93632899 -146.234375 158.21313477 C-122.75365248 155.0511911 -100.87992237 158.83075364 -81.3125 172.9375 C-79.17783952 174.59186187 -77.07333049 176.26966493 -75 178 C-74.01 177.505 -74.01 177.505 -73 177 C-85.63135251 162.20494359 -98.95849635 154.80727792 -118.484375 153.16015625 C-133.48099886 152.20540225 -147.61567531 155.10621434 -162 159 Z M-144 163 C-144 163.66 -144 164.32 -144 165 C-142.70449219 165.15855469 -141.40898437 165.31710938 -140.07421875 165.48046875 C-121.14352645 167.91567109 -101.74349222 171.79718269 -84.67578125 180.7421875 C-83.79277344 181.15726563 -82.90976563 181.57234375 -82 182 C-81.34 181.67 -80.68 181.34 -80 181 C-99.44401855 166.04306265 -119.68395147 160.15720518 -144 163 Z M-153 170 C-150.26774145 171.396779 -147.51332246 172.66157387 -144.68359375 173.84765625 C-143.84594482 174.20142334 -143.0082959 174.55519043 -142.14526367 174.91967773 C-141.25170166 175.29680908 -140.35813965 175.67394043 -139.4375 176.0625 C-131.30661619 179.5073097 -123.29841937 183.14129926 -115.39428711 187.08032227 C-106.10809628 191.61548675 -98.24505933 192.27756102 -88 192.125 C-86.84371094 192.11597656 -85.68742187 192.10695312 -84.49609375 192.09765625 C-81.66384353 192.07424922 -78.83203381 192.04145995 -76 192 C-96.60787793 176.00359633 -127.6052351 170.65789546 -153 170 Z M-156 176 C-153.2293479 179.06750768 -149.8733688 181.28216887 -146.5 183.625 C-141.94657415 186.81046147 -137.63767561 190.10036287 -133.4375 193.75 C-122.49886076 202.77517465 -108.07009993 207.64997638 -93.8125 207.0625 C-84.70895208 205.85431308 -75.76148739 202.67322363 -67 200 C-67 199.67 -67 199.34 -67 199 C-71.27678996 198.18993756 -75.34142064 197.86685063 -79.69140625 197.82421875 C-80.96693359 197.80037109 -82.24246094 197.77652344 -83.55664062 197.75195312 C-86.20022165 197.70578972 -88.84221705 197.67794512 -91.48632812 197.65820312 C-105.82920169 197.34874825 -116.9409135 192.8854819 -129.625 186.5 C-142.23140128 179.33410241 -142.23140128 179.33410241 -156 176 Z M-170 178 C-167.41291523 181.31470237 -164.84113747 184.22695619 -161.625 186.9375 C-158.11644924 189.90424066 -154.93371648 193.09273879 -151.7421875 196.38964844 C-138.6225151 209.88777293 -125.42344272 219.88395688 -106 221 C-94.72611771 220.82407466 -82.68356804 215.06647502 -74 208 C-74.54527344 208.12117188 -75.09054688 208.24234375 -75.65234375 208.3671875 C-77.24554421 208.72123205 -78.83934371 209.07258704 -80.43359375 209.421875 C-82.05543338 209.78722091 -83.67345407 210.17037812 -85.28515625 210.578125 C-98.62216269 213.87121301 -114.93691246 211.68734715 -127 205 C-133.84802025 200.55239951 -140.24279437 195.693966 -146.4375 190.375 C-150.70568595 186.80651667 -155.1136769 184.05063842 -160 181.4375 C-160.64767334 181.09058105 -161.29534668 180.74366211 -161.96264648 180.38623047 C-164.83696116 178.90601721 -166.72219968 178 -170 178 Z M70 245 C69.67 245.99 69.34 246.98 69 248 C72.24806496 246.47416483 75.14278046 244.61604453 78.125 242.625 C93.87861979 232.51572527 111.58118086 231.73536508 129.6472168 235.53808594 C138.32429708 237.55760064 146.76069529 240.04951935 155.1015625 243.1796875 C157.98654672 243.99619247 159.25642488 244.08404675 162 243 C154.26066483 238.56142932 146.55955972 234.58233975 138.125 231.625 C137.44896729 231.38700684 136.77293457 231.14901367 136.07641602 230.90380859 C112.12545375 222.81813629 87.86900114 225.90988261 70 245 Z M67 259 C70.67094219 259 72.53126883 257.88454673 75.8125 256.25 C86.95646957 250.9830736 98.45536406 247.87935301 110.83203125 247.8671875 C112.11779053 247.86525391 113.4035498 247.86332031 114.72827148 247.86132812 C116.08968243 247.86543228 117.45109206 247.86999727 118.8125 247.875 C119.84372482 247.87632935 119.84372482 247.87632935 120.89578247 247.87768555 C131.62201381 247.89395282 142.30278783 248.17826628 153 249 C150.37544904 247.25029936 148.66149562 246.45515805 145.71875 245.5625 C144.46457275 245.18085693 144.46457275 245.18085693 143.18505859 244.79150391 C113.24142072 235.9646923 90.69846174 236.32967109 67 259 Z M-163 244 C-152.65872675 250.89418217 -137.57007201 250.46899794 -125.54711914 251.72680664 C-95.48066739 254.90786234 -95.48066739 254.90786234 -83.125 261.8125 C-81.11034979 262.92537625 -79.07516958 264.0045201 -77 265 C-76.01 264.505 -76.01 264.505 -75 264 C-79.42080052 258.53216777 -84.37356976 254.87519002 -90.5625 251.6875 C-91.16771484 251.36265625 -91.77292969 251.0378125 -92.39648438 250.703125 C-106.94399862 243.56995932 -123.66875656 244.47124957 -139.4375 244.3125 C-141.72983639 244.27925893 -144.02215494 244.24476324 -146.31445312 244.20898438 C-151.8761794 244.12486786 -157.43792518 244.05620109 -163 244 Z M-165 251 C-153.67959665 260.42903375 -135.78401877 262.27861004 -121.859375 265.18945312 C-115.5981995 266.50442672 -109.34744199 267.86663784 -103.09692383 269.23123169 C-101.05688437 269.67512257 -99.01586724 270.11424117 -96.97460938 270.55249023 C-90.29292876 272.00044195 -83.71190009 273.55807525 -77.171875 275.55786133 C-74.83399381 276.22195251 -74.83399381 276.22195251 -72 275 C-91.65512478 261.28920627 -112.27711943 258.0366227 -135.61328125 255.77050781 C-143.93182526 254.95313844 -151.91133896 254.11222713 -159.92480469 251.5859375 C-162.12179859 250.86413546 -162.12179859 250.86413546 -165 251 Z M-175 253 C-169.7153333 264.35956393 -157.66008972 269.1661103 -146.515625 273.2890625 C-126.23760886 279.52479047 -105.03944536 280.20187101 -84 280 C-87.65073705 277.8650934 -91.51175042 277.1059768 -95.60546875 276.265625 C-96.35379471 276.10715591 -97.10212067 275.94868683 -97.87312317 275.78541565 C-99.47770261 275.44581134 -101.08275666 275.10844321 -102.68823242 274.77310181 C-106.89288201 273.89306006 -111.09275545 272.9907803 -115.29296875 272.08984375 C-116.12770721 271.911082 -116.96244568 271.73232025 -117.82247925 271.54814148 C-156.32527033 263.28531052 -156.32527033 263.28531052 -170.1953125 255.015625 C-172.13187849 253.85065826 -172.13187849 253.85065826 -175 253 Z M67 268 C71.10939557 269.36979852 73.74269855 267.82232876 77.625 266.375 C98.41900209 259.10655399 120.17866005 256.8884078 142 255 C142 254.67 142 254.34 142 254 C115.66329261 249.95321968 89.19571235 252.56530624 67 268 Z M56 282 C59.78851986 284.52567991 62.8573113 284.34445679 67.25 284.3125 C68.4572876 284.30404053 68.4572876 284.30404053 69.68896484 284.29541016 C88.87411166 283.91314544 105.63472376 276.19612317 122.84375 268.51538086 C128.48934607 266.01108003 134.10785538 263.85527015 140 262 C140 261.67 140 261.34 140 261 C111.75451236 260.48331425 80.3366357 267.45989138 56 282 Z M135.3125 269.375 C133.84973633 269.90432129 133.84973633 269.90432129 132.35742188 270.44433594 C125.11098399 273.11371066 118.05084068 276.10471754 111 279.25 C96.37506267 285.71141984 82.91449452 288.71055268 67 290 C76.28407706 296.18938471 91.08079358 295.0852229 101.7109375 293.41796875 C118.22176427 289.2808165 135.19227888 278.16526167 147 266 C142.9707123 266 139.06208884 268.01279462 135.3125 269.375 Z M-174 272 C-173.67 272.99 -173.34 273.98 -173 275 C-173 274.01 -173 273.02 -173 272 C-173.33 272 -173.66 272 -174 272 Z M-163 273 C-160.04065577 277.19118949 -156.82209731 279.64430434 -152.375 282.0625 C-151.75181885 282.40756592 -151.1286377 282.75263184 -150.48657227 283.1081543 C-128.37229565 295.14590379 -110.49291292 293.73614788 -87 287 C-87 286.67 -87 286.34 -87 286 C-88.25151855 285.93268677 -88.25151855 285.93268677 -89.52832031 285.86401367 C-141.2788986 283.00598655 -141.2788986 283.00598655 -161 273 C-161.66 273 -162.32 273 -163 273 Z M-172 275 C-170.57039133 279.41805618 -168.18187892 282.4667189 -165.0625 285.8125 C-164.57740967 286.33585937 -164.09231934 286.85921875 -163.5925293 287.3984375 C-151.04654843 300.56939146 -136.38231908 307.03806765 -118.2734375 307.984375 C-102.544925 308.05945143 -89.46277201 301.13936614 -77 292 C-80.66900099 290.68223715 -83.0502685 291.34302052 -86.734375 292.43359375 C-87.85779297 292.75360352 -88.98121094 293.07361328 -90.13867188 293.40332031 C-91.33041016 293.74459961 -92.52214844 294.08587891 -93.75 294.4375 C-115.18423704 300.21694768 -133.96030593 298.56056637 -153.6953125 288.04296875 C-158.55224584 285.04039649 -163.02508068 281.63676063 -167.453125 278.0390625 C-169.80457066 276.01025853 -169.80457066 276.01025853 -172 275 Z M89.23828125 352.609375 C85.97267509 356.09724755 83.39730824 359.87779924 81 364 C81.33 364.66 81.66 365.32 82 366 C82.44988281 365.50371094 82.89976562 365.00742187 83.36328125 364.49609375 C100.1459918 346.77166798 123.20667673 342.56832004 145.98461914 337.24389648 C153.89648869 335.3570832 161.45779225 333.04926467 169 330 C169 329.67 169 329.34 169 329 C142.67230767 328.42555914 108.88472299 334.18496074 89.23828125 352.609375 Z M157.125 339.5 C147.14406965 342.46972934 137.08951987 345.01374373 126.94775391 347.375 C111.64013665 351.06241335 97.63827535 357.0546328 87 369 C87.66 369.33 88.32 369.66 89 370 C91.00690427 369.25865515 92.97995508 368.42579301 94.9375 367.5625 C102.27383686 364.45477838 109.78724401 362.20289805 117.4375 360 C135.51583962 354.74801913 152.36036146 348.69580144 168 338 C164.51175569 336.25587785 160.70058402 338.40834667 157.125 339.5 Z M175 340 C172.95047718 341.23033195 171.02123496 342.51184477 169.0625 343.875 C152.4477154 354.84763589 134.46656311 360.62043296 115.5617218 366.30603027 C110.270314 367.90252739 105.02549488 369.60184641 99.8125 371.4375 C98.58144531 371.86933594 97.35039062 372.30117188 96.08203125 372.74609375 C93.16413393 373.93322308 90.60794221 375.23681497 88 377 C88 377.33 88 377.66 88 378 C120.73168133 377.25455798 152.42523217 361.77986365 177 341 C176.01 340.505 176.01 340.505 175 340 Z M-151 364 C-150.34 364.33 -149.68 364.66 -149 365 C-146.84797567 364.19374863 -144.72821359 363.30114394 -142.625 362.375 C-136.37153128 359.73342179 -130.08972545 357.80840415 -123.5 356.1875 C-122.6642041 355.98108887 -121.8284082 355.77467773 -120.96728516 355.56201172 C-102.82953588 351.23207398 -84.87307578 351.93241378 -67 357 C-65.89914063 357.30808594 -64.79828125 357.61617188 -63.6640625 357.93359375 C-61.42894049 358.58785215 -59.21026214 359.26694824 -57 360 C-65.38178808 350.44219574 -80.73334394 345.64468492 -92.95703125 344.69140625 C-114.42530934 343.78391281 -133.40206456 352.39862133 -151 364 Z M172.4375 351.9375 C155.06477757 366.22074344 133.41942271 374.09736159 112 380 C112 380.33 112 380.66 112 381 C117.7395177 381.12985334 123.09601694 380.72047804 128.75 379.75 C129.53568359 379.61577637 130.32136719 379.48155273 131.13085938 379.34326172 C137.66259247 378.16771025 143.84013872 376.50187914 150 374 C150.85851562 373.65324219 151.71703125 373.30648438 152.6015625 372.94921875 C162.39125717 368.53930985 172.74353866 359.95698559 177.375 350.0625 C177.58125 349.381875 177.7875 348.70125 178 348 C175.95087197 348 173.85698014 350.69995025 172.4375 351.9375 Z M-142 369 C-140.94941406 368.86722656 -139.89882812 368.73445313 -138.81640625 368.59765625 C-137.39844177 368.41923688 -135.98047278 368.2408534 -134.5625 368.0625 C-133.87478516 367.97548828 -133.18707031 367.88847656 -132.47851562 367.79882812 C-131.04766692 367.61914015 -129.61641054 367.44267597 -128.18481445 367.26904297 C-126.78098839 367.09617267 -125.37829274 366.91370388 -123.97729492 366.71923828 C-116.73647251 365.78226044 -109.47933501 365.75845628 -102.1875 365.75 C-101.50424652 365.74866058 -100.82099304 365.74732117 -100.11703491 365.74594116 C-85.07952827 365.75231196 -70.68741945 367.31099919 -56.21484375 371.546875 C-53.84110018 372.22478836 -53.84110018 372.22478836 -51 371 C-73.06821515 358.26595989 -120.51160387 347.51160387 -142 369 Z M166.0625 371.1875 C146.20970038 386.72583293 118.06784271 386.36146861 94 388 C94 388.33 94 388.66 94 389 C113.40277187 393.55020756 134.72758529 395.93656932 153 386 C159.98096677 381.57904925 166.73521747 376.42635346 172 370 C172 369.34 172 368.68 172 368 C169.14998735 368 168.21968055 369.35799245 166.0625 371.1875 Z M-141 375 C-141 375.33 -141 375.66 -141 376 C-140.30140869 376.01981934 -139.60281738 376.03963867 -138.88305664 376.06005859 C-115.4812217 376.75575246 -115.4812217 376.75575246 -105.75 378.0625 C-90.07884997 380.10534966 -74.66886239 378.38786626 -59 377 C-62.65648028 375.06418703 -66.05193073 374.23622303 -70.125 373.4375 C-71.98511719 373.06431641 -71.98511719 373.06431641 -73.8828125 372.68359375 C-96.19493217 368.74487993 -118.93167152 370.62127097 -141 375 Z M-147 382 C-143.40744564 383.91018035 -140.28695543 384.55299962 -136.25 385.1875 C-125.76359581 386.96672286 -115.67023327 390.17957592 -105.5168457 393.29150391 C-93.12837666 396.77887777 -82.57115077 395.33606953 -71 390 C-69.45699219 389.319375 -69.45699219 389.319375 -67.8828125 388.625 C-63.87511605 386.83907691 -59.91532164 384.9802666 -56 383 C-60.4870225 382.95643667 -64.97368587 382.92656664 -69.4609375 382.93359375 C-70.21938965 382.93415771 -70.9778418 382.93472168 -71.75927734 382.93530273 C-74.72494775 383.0209317 -77.62840976 383.37436213 -80.56640625 383.76953125 C-90.34528239 384.69562064 -99.97605305 384.10353301 -109.67163086 382.71606445 C-121.96764383 381.16666343 -134.63244914 381.84198707 -147 382 Z M-158 389 C-158 389.33 -158 389.66 -158 390 C-157.02546875 390.23332031 -156.0509375 390.46664063 -155.046875 390.70703125 C-144.99157636 393.25057302 -135.49003834 396.67548758 -125.875 400.5625 C-108.6670976 407.46559687 -94.0090899 413.33830125 -75.90234375 406.0078125 C-67.05326204 401.75165498 -59.02022886 395.61791382 -51 390 C-54.89138557 388.70287148 -56.17711556 389.60261406 -59.9375 391.125 C-61.08863281 391.58648437 -62.23976563 392.04796875 -63.42578125 392.5234375 C-69.9905574 395.23442502 -69.9905574 395.23442502 -76.5390625 397.984375 C-90.23602105 403.63708805 -105.60947723 399.11963321 -119.125 395.0625 C-121.55917124 394.35313926 -123.99514753 393.65066924 -126.43283081 392.95347595 C-127.92903145 392.52339069 -129.42302072 392.08549587 -130.91409302 391.63795471 C-137.91593356 389.58347015 -144.68349768 388.86128643 -152 388.9375 C-153.7015625 388.95103516 -153.7015625 388.95103516 -155.4375 388.96484375 C-156.283125 388.97644531 -157.12875 388.98804688 -158 389 Z " fill="#000000" transform="translate(255,10)"/>
</svg>
